<?xml version="1.0" standalone="no"?>
<!DOCTYPE svg PUBLIC "-//W3C//DTD SVG 20010904//EN"
 "http://www.w3.org/TR/2001/REC-SVG-20010904/DTD/svg10.dtd">
<svg version="1.0" xmlns="http://www.w3.org/2000/svg"
 width="372.000000pt" height="372.000000pt" viewBox="0 0 372.000000 372.000000"
 preserveAspectRatio="xMidYMid meet">
<metadata>
Created by potrace 1.11, written by Peter Selinger 2001-2013
</metadata>
<g transform="translate(0.000000,372.000000) scale(0.100000,-0.100000)"
fill="#000000" stroke="none">
<path d="M1390 3220 l0 -500 -32 -1 c-86 -2 -216 -38 -310 -85 -70 -35 -175
-129 -224 -199 l-21 -29 1 132 c1 110 -2 133 -14 136 -8 2 -106 4 -217 4
l-203 -1 0 -1338 0 -1339 228 2 227 3 0 543 c0 298 2 542 4 542 2 0 23 -20 45
-44 85 -90 195 -158 321 -195 109 -32 125 -33 386 -38 l247 -5 -2 43 c-1 42 0
44 54 76 30 18 61 35 67 39 7 3 39 -11 70 -32 159 -105 407 -143 648 -98 58
10 173 53 224 83 29 17 55 31 58 31 7 0 79 58 131 105 100 89 207 284 242 438
5 23 12 56 16 72 14 63 14 329 -1 400 -76 385 -308 647 -650 734 -92 23 -251
31 -345 17 -120 -19 -263 -73 -339 -130 -33 -25 -36 -25 -60 -9 -14 9 -38 23
-53 31 -15 7 -30 18 -33 23 -4 5 -6 252 -6 549 l0 540 -230 0 -229 0 0 -500z
m0 -1452 l0 -539 -77 2 c-142 4 -246 50 -350 155 -55 56 -117 158 -128 212 -2
9 -8 37 -14 62 -10 45 -9 181 3 235 46 215 234 389 444 411 31 4 58 7 59 9 2
1 16 0 33 -3 l30 -4 0 -540z m1205 493 c258 -127 364 -423 256 -712 -24 -63
-84 -148 -139 -197 -47 -41 -183 -108 -240 -117 -73 -12 -199 -7 -249 9 l-23
7 26 52 c40 78 66 157 92 282 4 17 6 107 6 200 -1 151 -4 181 -27 269 -15 55
-40 128 -57 164 -34 72 -35 78 -17 80 6 0 44 5 82 9 94 11 211 -7 290 -46z
m-725 -486 c1 -44 -1 -89 -4 -100 -2 -11 -5 -29 -6 -40 -1 -19 -1 -19 -11 -1
-15 25 -19 197 -6 249 l11 42 8 -35 c4 -19 8 -71 8 -115z"/>
</g>
</svg>
